<?xml version="1.0" encoding="UTF-8"?>
<svg id="Layer_2" data-name="Layer 2" xmlns="http://www.w3.org/2000/svg" viewBox="0 0 2443.92 1443.33">
  <g id="Varient_Logos" data-name="Varient Logos">
    <g>
      <path d="M950.93,820.63c118.47,0,188.57,73.19,188.57,183.6v24.81h-243.15c6.2,33.5,25.43,52.72,53.96,52.72,20.47,0,35.98-9.92,45.28-27.91h143.29c-21.09,78.16-91.18,127.16-187.95,127.16-117.23,0-194.77-71.95-194.77-180.5s77.54-179.88,194.77-179.88ZM1004.89,972.6c-6.2-33.5-24.81-52.72-53.96-52.72s-48.38,19.23-54.58,52.72h108.55Z"/>
      <path d="M1344.18,820.63c106.69,0,180.5,59.55,192.91,151.35h-138.94c-6.82-29.15-25.43-45.9-53.96-45.9-36.6,0-57.07,27.29-57.07,74.43s20.47,75.05,57.07,75.05c28.53,0,47.14-16.75,53.96-46.52h138.94c-12.41,92.42-86.22,151.97-192.91,151.97-117.23,0-194.77-71.95-194.77-180.5s77.54-179.88,194.77-179.88Z"/>
      <path d="M1548.25,715.8h136.46v455.91h-136.46v-455.91Z"/>
      <path d="M1894.36,820.63c117.23,0,194.77,72.57,194.77,179.88s-77.54,180.5-194.77,180.5-194.77-71.95-194.77-180.5,77.54-179.88,194.77-179.88ZM1894.36,1075.57c36.6,0,57.07-26.67,57.07-75.05s-20.47-74.43-57.07-74.43-57.07,27.29-57.07,74.43,20.47,75.05,57.07,75.05Z"/>
      <path d="M2104.01,829.94h127.16l3.1,75.67c14.89-53.34,40.32-75.67,84.36-75.67h34.74v136.46h-37.84c-56.45,0-75.05,13.65-75.05,61.41v143.91h-136.46v-341.78Z"/>
      <path d="M2322.35,1053.86h121.58v117.85h-121.58v-117.85Z"/>
    </g>
  </g>
  <g id="_1_Version_Texte" data-name="1 Version Texte">
    <path d="M942.1,499.4c79.82-9.46,196.44-53.42,197.82-149.72,1.03-71.29-74.5-112.46-136.78-119.55-67.19-7.64-136.04,7.6-199.91,26.82-2.07-2.48-1.11-2.56-.28-4.69,3.97-10.32,19.55-29.61,26.14-40.92,6.89-11.87,15.26-25.96,20.24-38.62,40.85-103.57-24.65-185.52-134.87-171.06-90.36,11.85-156.05,81.64-201.25,155.98l-5.17-1.59c-16.56-41.63-37.45-83.81-73.08-112.61-46.21-37.35-114.73-49.26-169.43-24.76-98.52,44.13-103.65,157.2-29.1,226.08,1.4.58.38,2.97-.25,3.75-1.72,2.15-46.88,8.17-54.24,9.75-54.55,11.75-130.6,43.16-160.88,92.56-30.73,50.15-29.87,105.59,16.45,144.85,66.8,56.58,175.05,32.96,247.86,1.42l5.84.86c-5.39-.8-24.4,41.01-26.8,46.19-28.54,61.53-28.78,135.81,29.14,180.8,68.95,53.56,162.72,24.13,224.86-25.21,22.81-18.12,42.85-39.63,60.04-63.11,2.31-3.17,4.58-6.36,6.79-9.6,3.95,4.31,7.64,8.85,10.95,13.72,15.43,23.2,22.18,52.31,33.13,78.21,8.76,23.52,28.5,55.96,6.45,77.47-8.72,8.15-22.34,11.07-34.27,13.11-103.58,16.79-207.66,30.14-311.88,41.8-55.4,7.3-109.88,16.62-165.48,23.49-56.38,6.88-95.92,22.93-106.35,84.97-5.64,32.48,8.38,53.89,33.75,72.6,19.64,14.71,39.56,28.95,59.94,42.89,127.84,82.44,262.72,148.03,385.16,240.51,43.59,32.2,82.61,69.47,125.69,102.41,14.87,10.96,30.4,19.78,47.79,23.3,40.48,8.56,86.99-14.26,111.15-47.44,20.82-30.88,25.59-72.09,15.57-107.65l-.08-.25c-12.28-44.1-51.03-70.3-86.84-94.99-33.79-23.94-68.22-47.33-104.17-67.87-98.93-58.29-210.84-89.1-322.13-113.35-28.4-6.34-56.95-12.43-85.62-17.51-22.34-4.49-45.12-6.06-67.31-10.84-17.85-4.35-23.4-19.15-5.16-28.44,8.89-4.47,20.39-5.47,30.5-6.85,15.46-1.92,30.9-4.37,46.24-6.74,121.19-15.06,240.94-51.41,362.27-66.92,11.16-1.68,22.26-3.45,33.26-5.53,28.63-6.09,69.92-13.95,91.11-34.72,10.93-11,13.64-26.95,13.25-42.13-2.48-43.27-3.51-86.55-5.49-129.36,56.74,57.83,132.01,101.77,210.65,79.87,42.35-11.81,74.43-42.21,79.65-87.25,6.76-58.36-37.96-110.73-74.93-150.38.67-2.68,25.43-3.23,30.12-3.78ZM658.32,433.79c-69.58,15.61-185.01,10.34-245.98-27.9-31.97-20.05-48.02-49.01-10.86-75.07,55.73-39.05,171.96-37.46,236.26-23.76,32.28,6.88,89.6,21.51,103.53,54.94,18.48,44.38-51.65,64.76-82.96,71.79Z"/>
  </g>
</svg>