<?xml version="1.0" encoding="UTF-8"?>
<svg id="Layer_2" data-name="Layer 2" xmlns="http://www.w3.org/2000/svg" viewBox="0 0 2455.29 1497.11">
  <g id="_1_Version_Texte" data-name="1 Version Texte">
    <g>
      <g>
        <g>
          <g>
            <path d="M2345,831.03c-25.12,0-45.73,6.05-62.71,18.47l-.75-18.47h-176.16v77.32c-7.62-10.97-16.4-21.08-26.3-30.26-39.78-36.87-94.53-56.36-158.35-56.36s-118.57,19.49-158.34,56.36c-9.9,9.18-18.68,19.29-26.3,30.25v-191.44h-186.47v183.52c-38.49-49.59-101.8-78.69-179.07-78.69-63.88,0-118.63,19.4-158.32,56.11-17.13,15.84-30.92,34.48-41.1,55.53-8.16-17.83-18.75-33.82-31.53-47.76-37.31-40.73-93.31-63.88-162.3-63.88-63.88,0-118.63,19.4-158.32,56.11-19.8,18.31-35.14,40.36-45.59,65.54-10.53,25.35-15.86,53.35-15.86,83.23s5.33,58.12,15.84,83.55c10.45,25.26,25.78,47.38,45.58,65.74,39.67,36.77,94.42,56.21,158.35,56.21,52.25,0,99.43-13.36,136.45-38.62,9.34-6.37,17.97-13.45,25.85-21.18,13.85-13.57,25.4-29.13,34.41-46.35,9.84,18.77,22.64,35.51,38.2,49.94,39.66,36.77,94.42,56.21,158.34,56.21,57.84,0,108.79-16.17,147.34-46.74,11.99-9.51,22.59-20.24,31.73-32.06v69.5h186.47v-77.19c7.61,10.98,16.4,21.1,26.3,30.28,39.66,36.77,94.42,56.21,158.34,56.21s118.68-19.44,158.35-56.21c9.9-9.18,18.68-19.31,26.3-30.29v77.2h186.46v-168.91c0-23.51,5.26-27.72,6.99-29.11,6.05-4.85,20.54-7.3,43.06-7.3h62.84v-186.46h-59.73ZM1165.87,1055.14h-243.16c6.21,33.5,25.44,52.73,53.97,52.73,20.47,0,35.98-9.93,45.28-27.91h143.29c-1.3,4.83-2.8,9.55-4.47,14.16-5.29,14.56-12.41,27.96-21.18,40.05-33.29,45.92-90.44,72.94-162.3,72.94-117.24,0-194.77-71.95-194.77-180.5s77.53-179.88,194.77-179.88c75.8,0,131.79,29.96,162.3,80.46,7.77,12.86,13.88,27.05,18.25,42.42,5.29,18.61,8.02,38.94,8.02,60.72v24.81ZM1424.52,998.08c-6.83-29.16-25.44-45.91-53.97-45.91-36.6,0-57.06,27.3-57.06,74.44s20.46,75.05,57.06,75.05c28.53,0,47.14-16.74,53.97-46.52h138.94c-2.39,17.84-7.07,34.45-13.84,49.64-28.28,63.55-92.97,102.33-179.07,102.33-90.79,0-157.78-43.16-183.37-113.04-7.46-20.36-11.4-42.98-11.4-67.46,0-20.31,2.75-39.35,7.99-56.88,22.61-75.59,91.62-123,186.78-123,86.1,0,150.79,38.78,179.07,102,6.77,15.12,11.45,31.63,13.84,49.35h-138.94ZM1549.62,1023.08v7.06h-145.02l-4.45,19.41c-3.07,13.4-8.99,27.11-29.6,27.11-13.42,0-19.17-5.55-22.33-9.71-6.36-8.41-9.73-22.36-9.73-40.34,0-49.44,24.13-49.44,32.06-49.44,10.89,0,24.1,3.02,29.63,26.61l4.52,19.3h144.92ZM1711.09,1197.81h-136.47v-455.91h136.47v455.91ZM2105.38,1090.46c-24.59,72.01-92.3,116.65-184.65,116.65s-160.04-44.63-184.64-116.62c-6.63-19.42-10.13-40.82-10.13-63.88s3.5-44.02,10.13-63.32c24.6-71.55,92.31-116.56,184.64-116.56s160.06,45.03,184.65,116.59c6.63,19.29,10.12,40.51,10.12,63.29s-3.49,44.44-10.12,63.85ZM2379.73,992.49h-37.84c-56.44,0-75.05,13.65-75.05,61.41v143.91h-136.46v-341.78h127.16l3.1,75.68c14.88-53.35,40.32-75.68,84.36-75.68h34.73v136.46Z" fill="#fff"/>
            <path d="M1920.73,952.18c-36.59,0-57.06,27.29-57.06,74.43s20.47,75.06,57.06,75.06,57.07-26.68,57.07-75.06-20.47-74.43-57.07-74.43ZM1943.11,1067.12c-3.13,4.1-8.84,9.55-22.38,9.55s-19.25-5.45-22.37-9.54c-6.34-8.33-9.69-22.34-9.69-40.52,0-49.43,24.13-49.43,32.06-49.43s32.07,0,32.07,49.43c0,18.18-3.35,32.19-9.69,40.51ZM1920.73,952.18c-36.59,0-57.06,27.29-57.06,74.43s20.47,75.06,57.06,75.06,57.07-26.68,57.07-75.06-20.47-74.43-57.07-74.43ZM1943.11,1067.12c-3.13,4.1-8.84,9.55-22.38,9.55s-19.25-5.45-22.37-9.54c-6.34-8.33-9.69-22.34-9.69-40.52,0-49.43,24.13-49.43,32.06-49.43s32.07,0,32.07,49.43c0,18.18-3.35,32.19-9.69,40.51ZM1920.73,952.18c-36.59,0-57.06,27.29-57.06,74.43s20.47,75.06,57.06,75.06,57.07-26.68,57.07-75.06-20.47-74.43-57.07-74.43ZM1943.11,1067.12c-3.13,4.1-8.84,9.55-22.38,9.55s-19.25-5.45-22.37-9.54c-6.34-8.33-9.69-22.34-9.69-40.52,0-49.43,24.13-49.43,32.06-49.43s32.07,0,32.07,49.43c0,18.18-3.35,32.19-9.69,40.51ZM1920.73,952.18c-36.59,0-57.06,27.29-57.06,74.43s20.47,75.06,57.06,75.06,57.07-26.68,57.07-75.06-20.47-74.43-57.07-74.43ZM1943.11,1067.12c-3.13,4.1-8.84,9.55-22.38,9.55s-19.25-5.45-22.37-9.54c-6.34-8.33-9.69-22.34-9.69-40.52,0-49.43,24.13-49.43,32.06-49.43s32.07,0,32.07,49.43c0,18.18-3.35,32.19-9.69,40.51ZM1920.73,952.18c-36.59,0-57.06,27.29-57.06,74.43s20.47,75.06,57.06,75.06,57.07-26.68,57.07-75.06-20.47-74.43-57.07-74.43ZM1943.11,1067.12c-3.13,4.1-8.84,9.55-22.38,9.55s-19.25-5.45-22.37-9.54c-6.34-8.33-9.69-22.34-9.69-40.52,0-49.43,24.13-49.43,32.06-49.43s32.07,0,32.07,49.43c0,18.18-3.35,32.19-9.69,40.51ZM1920.73,952.18c-36.59,0-57.06,27.29-57.06,74.43s20.47,75.06,57.06,75.06,57.07-26.68,57.07-75.06-20.47-74.43-57.07-74.43ZM1943.11,1067.12c-3.13,4.1-8.84,9.55-22.38,9.55s-19.25-5.45-22.37-9.54c-6.34-8.33-9.69-22.34-9.69-40.52,0-49.43,24.13-49.43,32.06-49.43s32.07,0,32.07,49.43c0,18.18-3.35,32.19-9.69,40.51ZM1920.73,952.18c-36.59,0-57.06,27.29-57.06,74.43s20.47,75.06,57.06,75.06,57.07-26.68,57.07-75.06-20.47-74.43-57.07-74.43ZM1943.11,1067.12c-3.13,4.1-8.84,9.55-22.38,9.55s-19.25-5.45-22.37-9.54c-6.34-8.33-9.69-22.34-9.69-40.52,0-49.43,24.13-49.43,32.06-49.43s32.07,0,32.07,49.43c0,18.18-3.35,32.19-9.69,40.51ZM1920.73,952.18c-36.59,0-57.06,27.29-57.06,74.43s20.47,75.06,57.06,75.06,57.07-26.68,57.07-75.06-20.47-74.43-57.07-74.43ZM1943.11,1067.12c-3.13,4.1-8.84,9.55-22.38,9.55s-19.25-5.45-22.37-9.54c-6.34-8.33-9.69-22.34-9.69-40.52,0-49.43,24.13-49.43,32.06-49.43s32.07,0,32.07,49.43c0,18.18-3.35,32.19-9.69,40.51ZM1920.73,952.18c-36.59,0-57.06,27.29-57.06,74.43s20.47,75.06,57.06,75.06,57.07-26.68,57.07-75.06-20.47-74.43-57.07-74.43ZM1943.11,1067.12c-3.13,4.1-8.84,9.55-22.38,9.55s-19.25-5.45-22.37-9.54c-6.34-8.33-9.69-22.34-9.69-40.52,0-49.43,24.13-49.43,32.06-49.43s32.07,0,32.07,49.43c0,18.18-3.35,32.19-9.69,40.51ZM1920.73,952.18c-36.59,0-57.06,27.29-57.06,74.43s20.47,75.06,57.06,75.06,57.07-26.68,57.07-75.06-20.47-74.43-57.07-74.43ZM1943.11,1067.12c-3.13,4.1-8.84,9.55-22.38,9.55s-19.25-5.45-22.37-9.54c-6.34-8.33-9.69-22.34-9.69-40.52,0-49.43,24.13-49.43,32.06-49.43s32.07,0,32.07,49.43c0,18.18-3.35,32.19-9.69,40.51ZM1920.73,952.18c-36.59,0-57.06,27.29-57.06,74.43s20.47,75.06,57.06,75.06,57.07-26.68,57.07-75.06-20.47-74.43-57.07-74.43ZM1943.11,1067.12c-3.13,4.1-8.84,9.55-22.38,9.55s-19.25-5.45-22.37-9.54c-6.34-8.33-9.69-22.34-9.69-40.52,0-49.43,24.13-49.43,32.06-49.43s32.07,0,32.07,49.43c0,18.18-3.35,32.19-9.69,40.51ZM1920.73,952.18c-36.59,0-57.06,27.29-57.06,74.43s20.47,75.06,57.06,75.06,57.07-26.68,57.07-75.06-20.47-74.43-57.07-74.43ZM1943.11,1067.12c-3.13,4.1-8.84,9.55-22.38,9.55s-19.25-5.45-22.37-9.54c-6.34-8.33-9.69-22.34-9.69-40.52,0-49.43,24.13-49.43,32.06-49.43s32.07,0,32.07,49.43c0,18.18-3.35,32.19-9.69,40.51ZM1920.73,952.18c-36.59,0-57.06,27.29-57.06,74.43s20.47,75.06,57.06,75.06,57.07-26.68,57.07-75.06-20.47-74.43-57.07-74.43ZM1943.11,1067.12c-3.13,4.1-8.84,9.55-22.38,9.55s-19.25-5.45-22.37-9.54c-6.34-8.33-9.69-22.34-9.69-40.52,0-49.43,24.13-49.43,32.06-49.43s32.07,0,32.07,49.43c0,18.18-3.35,32.19-9.69,40.51ZM1920.73,952.18c-36.59,0-57.06,27.29-57.06,74.43s20.47,75.06,57.06,75.06,57.07-26.68,57.07-75.06-20.47-74.43-57.07-74.43ZM1943.11,1067.12c-3.13,4.1-8.84,9.55-22.38,9.55s-19.25-5.45-22.37-9.54c-6.34-8.33-9.69-22.34-9.69-40.52,0-49.43,24.13-49.43,32.06-49.43s32.07,0,32.07,49.43c0,18.18-3.35,32.19-9.69,40.51ZM1920.73,952.18c-36.59,0-57.06,27.29-57.06,74.43s20.47,75.06,57.06,75.06,57.07-26.68,57.07-75.06-20.47-74.43-57.07-74.43ZM1943.11,1067.12c-3.13,4.1-8.84,9.55-22.38,9.55s-19.25-5.45-22.37-9.54c-6.34-8.33-9.69-22.34-9.69-40.52,0-49.43,24.13-49.43,32.06-49.43s32.07,0,32.07,49.43c0,18.18-3.35,32.19-9.69,40.51ZM1920.73,952.18c-36.59,0-57.06,27.29-57.06,74.43s20.47,75.06,57.06,75.06,57.07-26.68,57.07-75.06-20.47-74.43-57.07-74.43ZM1943.11,1067.12c-3.13,4.1-8.84,9.55-22.38,9.55s-19.25-5.45-22.37-9.54c-6.34-8.33-9.69-22.34-9.69-40.52,0-49.43,24.13-49.43,32.06-49.43s32.07,0,32.07,49.43c0,18.18-3.35,32.19-9.69,40.51ZM1920.73,952.18c-36.59,0-57.06,27.29-57.06,74.43s20.47,75.06,57.06,75.06,57.07-26.68,57.07-75.06-20.47-74.43-57.07-74.43ZM1943.11,1067.12c-3.13,4.1-8.84,9.55-22.38,9.55s-19.25-5.45-22.37-9.54c-6.34-8.33-9.69-22.34-9.69-40.52,0-49.43,24.13-49.43,32.06-49.43s32.07,0,32.07,49.43c0,18.18-3.35,32.19-9.69,40.51ZM1920.73,952.18c-36.59,0-57.06,27.29-57.06,74.43s20.47,75.06,57.06,75.06,57.07-26.68,57.07-75.06-20.47-74.43-57.07-74.43ZM1943.11,1067.12c-3.13,4.1-8.84,9.55-22.38,9.55s-19.25-5.45-22.37-9.54c-6.34-8.33-9.69-22.34-9.69-40.52,0-49.43,24.13-49.43,32.06-49.43s32.07,0,32.07,49.43c0,18.18-3.35,32.19-9.69,40.51Z" fill="#fff"/>
          </g>
          <path d="M1031.26,998.69h-108.55c6.21-33.5,25.44-52.73,54.59-52.73s47.76,19.23,53.96,52.73Z" fill="#fff"/>
        </g>
        <path d="M2425.29,1124.95v77.85h-81.58v-77.85h81.58M2445.29,1104.95h-121.58v117.85h121.58v-117.85h0Z" fill="#fff"/>
        <path d="M1549.62,1023.08v7.06h-145.02l-4.45,19.41c-3.07,13.4-8.99,27.11-29.6,27.11-13.42,0-19.17-5.55-22.33-9.71-6.36-8.41-9.73-22.36-9.73-40.34,0-49.44,24.13-49.44,32.06-49.44,10.89,0,24.1,3.02,29.63,26.61l4.52,19.3h144.92Z" fill="#fff"/>
        <path d="M1952.8,1026.61c0,18.18-3.35,32.19-9.69,40.51-3.13,4.1-8.84,9.55-22.38,9.55s-19.25-5.45-22.37-9.54c-6.34-8.33-9.69-22.34-9.69-40.52,0-49.43,24.13-49.43,32.06-49.43s32.07,0,32.07,49.43Z" fill="#fff"/>
      </g>
      <g>
        <path d="M1177.6,315.45c-9.27-16.42-22.51-31.21-39.33-43.93-28.49-21.58-66.69-36.43-104.81-40.77-5.71-.65-11.5-1.15-17.23-1.49-7.23-.45-14.74-.68-22.25-.68-38.88,0-77.01,6.02-111.38,13.92,6.31-10.92,12.94-22.86,17.58-34.63,10.74-27.22,15.35-53.97,13.72-79.5-1.59-25.08-9.48-48.7-22.8-68.26-13.01-19.11-30.56-34.07-52.19-44.48-21.55-10.37-46.05-15.63-72.8-15.63-9.13,0-18.57.62-28.09,1.87-46.67,6.13-90.72,26.47-130.93,60.48-23.09,19.53-45.03,43.68-65.52,72.08-15.09-30.88-35.03-61.61-64.29-85.24-34.05-27.53-79.14-43.32-123.71-43.32-25.77,0-50.16,5.07-72.48,15.07-26.2,11.73-47.69,28.1-63.88,48.63-15.5,19.67-25.41,42.17-29.45,66.86-6.76,41.27,3.92,84.15,29.03,120.5-7.49,1.16-11.78,1.85-14.39,2.39-15.9,3.44-32.06,8.05-48.08,13.73-35.3,12.51-99.04,40.93-129.49,90.62-39.67,64.75-31.35,132.9,21.73,177.88,30.15,25.53,69.05,39.08,115.62,40.26,2.24.06,4.53.09,6.81.09,25.17,0,52.29-3.54,80.59-10.55,4.76-1.18,9.54-2.45,14.3-3.81-14.66,34.57-20.44,69.94-16.72,102.79,4.67,41.26,24.32,76.4,56.77,101.62,29.03,22.55,63.09,33.97,101.24,33.97,51.29,0,107.99-21.64,155.54-59.41,17.73-14.09,34.39-30.42,49.7-48.73,4.23,9.3,7.85,19.5,11.59,30.06,3.18,8.99,6.47,18.28,10.3,27.41,1.58,4.17,3.39,8.46,5.13,12.6,8.88,21.03,12.28,32.05,7.41,37.16-4.13,3.57-16.62,5.72-20.93,6.45-89.69,14.55-188.15,27.81-300.98,40.56l-5.1.57-5.08.57-.24.03-.24.03c-25.36,3.34-50.84,7.15-75.47,10.83-29.49,4.41-59.97,8.95-90.13,12.69-47.46,5.8-68.72,17.04-81.93,26.19-25.26,17.49-40.51,43.64-46.63,79.97-3.62,20.93-1.04,40.23,7.67,57.36,7.36,14.51,19.17,27.63,36.07,40.11,19.56,14.65,40.05,29.3,60.87,43.55l.28.19.29.19c49.21,31.73,100,61.32,149.12,89.93,78.88,45.96,160.44,93.47,235.25,149.97l.1.08.11.09c22.67,16.75,44.76,35.5,66.13,53.63,19.11,16.22,38.88,32.99,59.46,48.73l.19.14.18.13c20.5,15.11,38.89,23.93,57.85,27.79,7.37,1.55,15.06,2.33,22.85,2.33,21.44,0,43.74-5.88,64.49-17.02,19.96-10.71,37.17-25.51,49.75-42.81l.27-.37.25-.38c12.23-18.13,20.37-39.91,23.51-62.96,3.01-22.05,1.45-44.89-4.51-66.04l-.05-.2-.06-.22v-.03c-14.69-52.3-57.64-81.9-95.53-108.02l-1.36-.94c-30.63-21.69-67.18-46.86-106.18-69.17-47.38-27.9-100.22-51.36-161.49-71.71-48.22-16.01-100.21-29.81-168.56-44.7-25.32-5.66-55.4-12.18-86.57-17.69-2.17-.43-4.34-.84-6.51-1.24,1.52-.23,3.03-.46,4.53-.7l5.03-.78c62.29-7.76,124.68-21.13,185.01-34.06,58.29-12.48,118.55-25.4,177.69-32.95l.28-.04.27-.04c9.44-1.41,21.87-3.35,34.29-5.71l.28-.05.28-.06c1.45-.31,2.94-.62,4.46-.94,18.56-3.92,41.64-8.8,62.44-17.41,15.49-6.43,27.55-14,36.9-23.13l.13-.13.11-.13c14.39-14.47,21.35-34.94,20.67-60.84v-.39l-.03-.39c-1.32-23.17-2.25-46.75-3.11-69.74,56.89,42.65,106.74,52.82,141.35,52.82,16.43,0,32.81-2.25,48.71-6.67,55.43-15.46,92.17-56.22,98.28-109.03.19-1.71.36-3.39.47-5.06.5-6.48.5-13.12,0-19.69-2.03-27.04-12.14-54.22-30.89-83.09-6.06-9.31-12.62-18.21-19.44-26.72,10.39-1.75,20.83-3.94,31.18-6.56,31.32-7.92,76.34-23.5,112.91-52.71,17.86-14.28,31.93-30.46,41.82-48.1,11.22-20.02,17.09-41.93,17.43-65.1.31-21.56-4.9-42.01-15.5-60.76ZM1014.69,517.42c-15.68,3.97-31.07,6.75-45.28,8.43-4.7.55-29.5,1.1-30.18,3.78,32.79,35.17,71.66,80.31,75.46,130.78.39,5.22.41,10.51,0,15.85-.1,1.35-.23,2.7-.38,4.05-5.22,45.13-37.37,75.59-79.8,87.42-14.1,3.92-28.07,5.74-41.88,5.74-63.29,0-122.51-38.2-169.18-85.78,1.99,42.9,3.02,86.26,5.5,129.62.39,15.21-2.32,31.19-13.27,42.21-7.57,7.4-17.67,13.17-28.84,17.81-20.23,8.38-43.97,13.04-62.45,16.98-11.02,2.09-22.14,3.86-33.32,5.54-121.57,15.54-241.56,51.96-362.99,67.05-15.36,2.37-30.84,4.83-46.33,6.75-10.13,1.39-21.65,2.38-30.56,6.87-18.28,9.31-12.71,24.14,5.17,28.49,22.24,4.79,45.07,6.37,67.45,10.87,28.72,5.08,57.33,11.18,85.79,17.54,111.51,24.29,223.64,55.17,322.76,113.57,36.02,20.58,70.52,44.02,104.37,68.01,35.88,24.74,74.71,50.99,87.01,95.18l.08.25c10.04,35.63,5.26,76.92-15.6,107.86-20.74,28.48-57.92,49.35-93.65,49.35-5.97,0-11.91-.57-17.72-1.81-17.43-3.53-32.98-12.37-47.88-23.35-43.17-33-82.26-70.35-125.94-102.61-122.68-92.67-257.82-158.38-385.91-240.98-20.42-13.97-40.38-28.24-60.06-42.98-25.42-18.75-39.47-40.2-33.82-72.74,10.46-62.16,50.07-78.25,106.56-85.14,55.71-6.89,110.3-16.23,165.81-23.54,3.4-.38,6.79-.76,10.19-1.15,101.02-11.41,201.89-24.46,302.3-40.74,11.96-2.04,25.6-4.97,34.34-13.13,22.1-21.55,2.32-54.06-6.46-77.62-10.97-25.95-17.73-55.12-33.19-78.36-3.31-4.88-7.01-9.43-10.97-13.74-2.22,3.25-4.48,6.45-6.8,9.62-17.22,23.53-37.31,45.08-60.16,63.23-38.81,30.83-89.94,53.88-139.69,53.88-30.04,0-59.6-8.42-85.61-28.62-58.03-45.08-57.79-119.5-29.19-181.16,2.38-5.13,21.09-46.29,26.7-46.29.05,0,.1.01.15.01l-5.85-.87c-40.84,17.69-92.79,32.89-142.38,32.89-2.06,0-4.11-.03-6.17-.08-36.77-.94-71.89-10.61-99.8-34.24-46.42-39.33-47.27-94.88-16.48-145.13,22.6-36.88,70.66-63.74,116.28-79.92,15.63-5.54,30.98-9.82,44.91-12.83,7.38-1.58,52.63-7.62,54.35-9.77.64-.78,1.66-3.17.25-3.76-74.69-69.01-69.56-182.31,29.16-226.53,19.49-8.73,40.71-12.84,62.07-12.84,38.72,0,77.85,13.54,107.7,37.65,35.7,28.85,56.63,71.11,73.23,112.83l5.18,1.59c45.3-74.49,111.11-144.42,201.65-156.29,8.55-1.12,16.8-1.66,24.77-1.66,95.16,0,148.13,77.3,110.36,173.05-4.99,12.69-13.37,26.8-20.28,38.7-6.6,11.34-22.21,30.66-26.19,41-.83,2.14-1.8,2.22.28,4.7,52.44-15.77,108.22-28.88,163.69-28.88,6.9,0,13.83.2,20.72.62,5.3.32,10.6.78,15.88,1.38,62.4,7.11,138.08,48.35,137.04,119.79-1.15,79.34-80.35,123.22-152.93,141.58Z" fill="#fff"/>
        <path d="M685.08,460.11c-69.71,15.64-185.37,10.36-246.46-27.96-32.04-20.09-48.11-49.1-10.88-75.22,55.84-39.13,172.3-37.54,236.73-23.81,32.34,6.89,89.78,21.55,103.74,55.05,18.52,44.47-51.75,64.89-83.13,71.93Z" fill="#fff"/>
      </g>
    </g>
  </g>
</svg>