<?xml version="1.0" encoding="UTF-8"?>
<svg id="Layer_2" data-name="Layer 2" xmlns="http://www.w3.org/2000/svg" viewBox="0 0 2455.29 1497.11">
  <g id="_1_Version_Texte" data-name="1 Version Texte">
    <g>
      <g>
        <g>
          <path d="M713.77,1463.63c-6.67,0-13.23-.67-19.5-2-16.38-3.32-32.61-11.18-50.99-24.71l-.14-.11c-19.96-15.26-39.26-31.64-57.93-47.48-21.22-18.01-43.16-36.63-65.89-53.41l-.09-.06c-74.34-56.15-155.01-103.15-233.02-148.59-48.2-28.08-98.04-57.11-146.18-88.16l-.23-.15c-20.34-13.92-40.34-28.23-59.46-42.54-14.69-10.83-24.86-22.03-31.03-34.18-7.17-14.11-9.17-29.53-6.11-47.13,5.3-31.5,18.26-54.02,39.61-68.8,22.04-15.26,51.08-20.42,73.91-23.2,29.86-3.69,59.95-8.19,89.06-12.54,24.19-3.61,49.2-7.35,74.03-10.62l10.22-1.15c111.34-12.58,208.5-25.67,297.04-40.02,11.02-1.88,22.16-4.44,28.49-10.29,12.27-12.07,6.16-29.73-3.82-53.35-1.78-4.22-3.47-8.21-4.93-12.11-3.65-8.67-6.86-17.7-9.95-26.44-6.3-17.78-12.25-34.57-21.75-48.84-.6-.88-1.22-1.76-1.86-2.64-17.98,24.38-38.26,45.6-60.29,63.1-44.19,35.08-96.56,55.2-143.7,55.2-34.12,0-64.53-10.19-90.39-30.28-28.67-22.27-46.01-53.32-50.14-89.8-3.62-31.96,2.77-66.74,18.47-100.59l.44-.96c1.78-3.86,6.27-13.59,11.23-23.2-31.01,11.51-75.93,24.34-122.06,24.34-2.12,0-4.24-.03-6.33-.08-42.31-1.08-77.44-13.22-104.42-36.06-23.79-20.16-37.66-45.8-40.1-74.16-2.27-26.33,5.27-54.52,21.82-81.53,27.54-44.95,86.77-71.21,119.63-82.85,14.95-5.3,30.67-9.79,45.44-12.97,2.55-.54,8.07-1.4,16.87-2.75,5.98-.92,14.81-2.28,22.11-3.52-33.44-36.14-48.91-82.69-41.66-126.99,7.42-45.31,36.95-81.66,83.14-102.35,20.02-8.96,41.95-13.51,65.18-13.51,40.47,0,81.4,14.32,112.28,39.28,34.14,27.59,54.78,66.47,70.07,102.86,23.61-36.62,49.43-66.9,76.9-90.12,37.33-31.57,78.07-50.44,121.09-56.08,8.7-1.14,17.34-1.72,25.68-1.72,24.04,0,45.95,4.67,65.1,13.89,18.87,9.08,34.15,22.09,45.43,38.66,11.76,17.28,18.44,37.35,19.87,59.67,1.46,22.9-2.74,47.04-12.49,71.77-4.85,12.33-12.48,25.44-19.2,37.01l-1.41,2.42c-2.75,4.73-6.71,10.38-10.91,16.37-1.78,2.54-3.7,5.29-5.55,8.01,41.44-11.63,91.93-22.86,143.41-22.86,7.09,0,14.16.22,21.02.64,5.33.32,10.77.79,16.14,1.4,34.91,3.98,69.81,17.52,95.76,37.17,31.9,24.15,48.5,55.55,47.99,90.8-.56,38.79-18.27,72.38-52.65,99.85-33.88,27.07-76.02,41.61-105.41,49.04-15.28,3.87-30.7,6.74-45.84,8.53-1.45.17-3.75.3-6.95.48-1.02.06-2.43.14-4.02.24,12.82,14.31,25.48,29.67,36.31,46.33,17.05,26.23,26.21,50.66,28.02,74.7.43,5.7.43,11.46,0,17.11-.11,1.45-.25,2.91-.41,4.35-5.29,45.7-37.36,81.04-85.79,94.54-14.34,3.99-29.1,6.01-43.89,6.01h-.01c-36.63,0-92.11-12.67-155.46-69.92.35,8.78.67,17.54.99,26.14.93,25.03,1.9,50.91,3.35,76.37v.31c.56,21.21-4.81,37.64-15.95,48.86l-.1.1c-7.8,7.62-18.12,14.04-31.54,19.61-19.19,7.95-41.16,12.59-58.81,16.32l-4.62.98c-11.97,2.27-24.02,4.14-33.17,5.52l-.22.03c-58.83,7.52-118.45,20.29-176.11,32.65-59.14,12.67-120.3,25.77-181.01,33.33l-5.15.8c-13.24,2.05-26.94,4.17-40.54,5.86-1.31.18-2.64.35-3.98.53-8.26,1.07-16.79,2.18-22.89,5.25-4.34,2.21-5.52,4.2-5.59,4.61.17.69,2.48,3.28,8.43,4.76,11.08,2.38,22.68,3.98,33.91,5.52,10.5,1.45,21.35,2.94,32.08,5.09,30.44,5.39,59.93,11.78,84.75,17.33,66.71,14.53,117.42,27.97,164.37,43.57,59.32,19.7,110.39,42.38,156.13,69.32,37.9,21.66,73.55,46.21,103.43,67.38l1.42.98c35.22,24.28,75.14,51.79,88.09,98.1l.1.33c11,39.03,4.6,82.89-16.69,114.46l-.21.29c-22.94,31.51-63.23,52.68-100.26,52.68ZM573.97,334.43c-60.29,0-108.85,10.76-136.74,30.31-11.41,8-17.09,16.18-16.88,24.3.27,10.36,10.17,22.41,27.16,33.07,34.03,21.34,92.12,34.08,155.41,34.08,29.22,0,56.77-2.71,79.65-7.85,39.68-8.91,66.89-22.62,74.66-37.63,3.12-6.03,3.16-12.25.11-19.56-8.5-20.4-40.45-36.63-94.95-48.25-25.26-5.38-57.49-8.47-88.42-8.47Z" fill="#3671a1"/>
          <path d="M764.5,30.33c93.66,0,145.78,76.09,108.61,170.32-4.91,12.49-13.16,26.38-19.96,38.09-6.49,11.16-21.86,30.17-25.77,40.35-.81,2.11-1.77,2.18.28,4.63,51.61-15.53,106.5-28.43,161.1-28.43,6.81,0,13.61.2,20.4.62,5.22.31,10.43.76,15.63,1.35,61.42,7,135.89,47.59,134.88,117.89-1.13,78.09-79.08,121.28-150.51,139.34-15.43,3.91-30.58,6.64-44.57,8.3-4.63.54-29.03,1.08-29.7,3.72,32.27,34.61,70.53,79.04,74.26,128.71.39,5.14.4,10.34,0,15.59-.1,1.33-.23,2.66-.38,3.99-5.14,44.42-36.78,74.39-78.54,86.04-13.88,3.86-27.64,5.65-41.22,5.65-62.3,0-120.57-37.59-166.51-84.41,1.96,42.22,2.97,84.9,5.42,127.57.39,14.97-2.28,30.7-13.06,41.55-7.45,7.28-17.39,12.96-28.38,17.53-19.91,8.25-43.28,12.84-61.47,16.71-10.84,2.06-21.79,3.8-32.79,5.45-119.65,15.29-237.74,51.14-357.25,65.99-15.12,2.33-30.35,4.75-45.59,6.64-9.97,1.37-21.31,2.34-30.07,6.76-17.99,9.16-12.51,23.76,5.09,28.04,21.89,4.71,44.35,6.27,66.38,10.69,28.27,5,56.43,11.01,84.43,17.26,109.74,23.91,220.1,54.29,317.66,111.77,35.45,20.26,69.4,43.33,102.72,66.93,35.31,24.35,73.52,50.18,85.64,93.67l.07.25c9.88,35.06,5.18,75.71-15.36,106.16-20.41,28.03-57,48.57-92.17,48.57-5.88,0-11.72-.57-17.43-1.78-17.15-3.47-32.46-12.17-47.12-22.98-42.49-32.48-80.96-69.24-123.95-100.99-120.74-91.2-253.75-155.88-379.81-237.17-20.1-13.75-39.74-27.79-59.11-42.3-25.02-18.45-38.85-39.56-33.28-71.59,10.29-61.18,49.28-77.01,104.88-83.79,54.83-6.78,108.55-15.97,163.18-23.17,3.35-.38,6.68-.75,10.03-1.13,99.42-11.23,198.7-24.07,297.52-40.09,11.77-2.01,25.2-4.89,33.8-12.92,21.75-21.21,2.28-53.2-6.36-76.4-10.79-25.54-17.45-54.24-32.67-77.12-3.26-4.8-6.9-9.28-10.79-13.53-2.18,3.2-4.41,6.34-6.69,9.46-16.95,23.15-36.72,44.37-59.21,62.23-38.2,30.33-88.52,53.03-137.48,53.03-29.57,0-58.66-8.29-84.26-28.17-57.12-44.37-56.88-117.61-28.73-178.29,2.35-5.05,20.76-45.56,26.27-45.55.05,0,.1,0,.15.01l-5.75-.85c-40.19,17.42-91.33,32.37-140.13,32.37-2.03,0-4.05-.03-6.07-.08-36.19-.93-70.75-10.44-98.22-33.7-45.68-38.71-46.52-93.38-16.22-142.84,22.24-36.29,69.54-62.73,114.44-78.65,15.38-5.45,30.49-9.67,44.2-12.62,7.26-1.55,51.8-7.5,53.49-9.62.63-.76,1.63-3.12.25-3.7-73.51-67.92-68.46-179.43,28.7-222.94,19.18-8.59,40.07-12.64,61.09-12.64,38.11,0,76.62,13.32,106,37.06,35.14,28.39,55.74,69.99,72.07,111.05l5.1,1.57c44.58-73.31,109.35-142.14,198.46-153.82,8.4-1.1,16.53-1.64,24.38-1.64M602.92,466.19c29.91,0,58.5-2.85,81.84-8.09,30.88-6.93,100.04-27.03,81.81-70.79-13.74-32.97-70.27-47.4-102.1-54.18-24.61-5.25-56.94-8.69-90.51-8.69-52.9,0-108.86,8.56-142.48,32.12-36.64,25.7-20.82,54.26,10.71,74.03,39.67,24.88,102.71,35.61,160.72,35.61M764.5,10.33s0,0,0,0c-8.77,0-17.84.61-26.98,1.81-44.95,5.89-87.43,25.53-126.24,58.36-24.29,20.54-47.29,46.39-68.62,77.07-15.03-32.42-35.08-65.29-65.6-89.95-32.63-26.37-75.85-41.5-118.56-41.5-24.65,0-47.95,4.84-69.26,14.38-25.03,11.21-45.54,26.81-60.95,46.37-14.72,18.68-24.13,40.04-27.97,63.49-6.86,41.84,5.16,85.45,32.54,121.52-1.71.26-3.28.51-4.64.71-9.25,1.42-14.62,2.26-17.43,2.86-15.21,3.28-31.35,7.89-46.7,13.33-34.1,12.09-95.66,39.48-124.81,87.05-17.67,28.85-25.71,59.14-23.26,87.62,2.68,31.04,17.76,59.03,43.6,80.93,28.77,24.36,65.99,37.29,110.64,38.43,2.16.06,4.38.08,6.58.08,37.1,0,73.34-8.01,102.58-17.13-.32.69-.6,1.29-.83,1.8l-.43.93c-16.48,35.53-23.17,72.16-19.34,105.94,4.44,39.22,23.1,72.61,53.94,96.57,27.66,21.48,60.14,32.38,96.53,32.38,49.36,0,104-20.91,149.92-57.37,19.13-15.19,36.96-33.09,53.16-53.33,5.88,11.21,10.39,23.93,15.1,37.22,3.12,8.81,6.35,17.92,10.08,26.79,1.52,4.05,3.29,8.25,5.01,12.31,9.9,23.43,13.15,35.15,6.13,42.22-5.07,4.55-17.3,6.65-23.28,7.67-88.36,14.32-185.33,27.39-296.48,39.95l-5.01.56-5.01.56-.19.02-.19.03c-24.91,3.28-49.96,7.02-74.19,10.64-29.05,4.34-59.09,8.83-88.84,12.51-16.54,2.02-29.75,4.56-41.54,8-14.43,4.21-26.47,9.74-36.82,16.9-23.68,16.4-38,41.06-43.78,75.41-3.37,19.5-1,37.42,7.06,53.28,6.89,13.56,18.02,25.89,34.01,37.7,19.2,14.38,39.3,28.76,59.74,42.75l.23.15.23.15c48.33,31.17,98.27,60.26,146.57,88.39,77.76,45.3,158.17,92.14,232.03,147.93l.09.06.09.06c22.45,16.58,44.26,35.09,65.35,52.99,18.76,15.92,38.16,32.38,58.33,47.8l.14.11.14.11c19.56,14.41,37.01,22.82,54.93,26.46,6.93,1.46,14.16,2.2,21.49,2.2,20.27,0,41.39-5.58,61.08-16.15,18.97-10.18,35.32-24.24,47.26-40.65l.21-.29.2-.3c11.6-17.21,19.32-37.89,22.32-59.82,2.87-21.02,1.39-42.78-4.29-62.94l-.04-.15-.04-.15-.02-.08c-13.94-49.76-55.42-78.34-92.02-103.57l-1.37-.94c-30.05-21.29-65.91-45.98-104.13-67.83-46.34-27.29-98.02-50.24-158-70.16-47.28-15.7-98.29-29.23-165.36-43.84-24.9-5.56-54.46-11.97-85.06-17.39-10.99-2.2-21.95-3.71-32.56-5.17-2.66-.37-5.3-.73-7.9-1.1,13.03-1.66,26.06-3.68,38.69-5.63l5.03-.78c61.1-7.61,122.42-20.75,181.73-33.46,57.46-12.31,116.88-25.04,175.29-32.51l.22-.03.22-.03c9.25-1.39,21.42-3.28,33.55-5.58l.22-.04.22-.05c1.43-.31,2.9-.62,4.4-.93,18.05-3.81,40.52-8.56,60.56-16.86,14.64-6.08,25.99-13.18,34.71-21.7l.1-.1.1-.1c13.15-13.22,19.5-32.12,18.87-56.17v-.31s-.03-.31-.03-.31c-1.45-25.36-2.41-51.19-3.34-76.18-.04-1.14-.09-2.29-.13-3.44,15,11.97,30.27,22.18,45.67,30.54,33.09,17.96,66.38,27.07,98.93,27.07,15.7,0,31.37-2.15,46.58-6.38,52.49-14.64,87.27-53.15,93.04-103v-.03s0-.03,0-.03c.18-1.56.33-3.15.45-4.72.47-6.14.47-12.41,0-18.61-1.94-25.75-11.62-51.72-29.61-79.39-7.49-11.53-15.8-22.41-24.41-32.73,12.95-1.84,26.02-4.43,38.99-7.71,30.33-7.67,73.91-22.73,109.19-50.92,17.07-13.64,30.5-29.07,39.91-45.85,10.63-18.97,16.18-39.71,16.5-61.66.29-20.31-4.62-39.57-14.6-57.22-8.79-15.56-21.36-29.59-37.36-41.7-27.34-20.7-64.03-34.96-100.66-39.13-5.53-.63-11.14-1.11-16.7-1.45-7.03-.44-14.31-.66-21.6-.66-42.2,0-83.58,7.33-120.02,16.33.6-.96,1.17-1.9,1.7-2.82l1.43-2.46c6.9-11.87,14.72-25.32,19.85-38.36,10.29-26.08,14.72-51.68,13.16-76.05-1.54-24.12-8.8-45.88-21.58-64.66-12.28-18.05-28.89-32.2-49.37-42.05-20.52-9.88-43.89-14.88-69.44-14.89h0ZM602.92,446.19c-61.49,0-117.6-12.17-150.1-32.55-16.38-10.27-22.35-19.81-22.48-24.85-.11-4.37,4.49-10.15,12.63-15.86,25.84-18.11,73.59-28.5,131-28.5,30.26,0,61.73,3.01,86.34,8.25,14.31,3.05,35.49,8.03,54.06,16.07,18.2,7.87,29.87,16.95,33.74,26.25,2.35,5.64,1.5,8.67.24,11.12-4.87,9.41-25.29,22.88-67.97,32.47-21.86,4.9-49.37,7.61-77.46,7.61h0Z"/>
        </g>
        <path d="M684.76,458.1c-68.61,15.39-182.44,10.19-242.56-27.52-31.53-19.77-47.35-48.33-10.71-74.03,54.96-38.51,169.58-36.94,232.99-23.43,31.83,6.78,88.36,21.21,102.1,54.18,18.23,43.76-50.93,63.86-81.81,70.79Z"/>
      </g>
      <g>
        <path d="M1177.6,315.45c-9.27-16.42-22.51-31.21-39.33-43.93-28.49-21.58-66.69-36.43-104.81-40.77-5.71-.65-11.5-1.15-17.23-1.49-7.23-.45-14.74-.68-22.25-.68-38.88,0-77.01,6.02-111.38,13.92,6.31-10.92,12.94-22.86,17.58-34.63,10.74-27.22,15.35-53.97,13.72-79.5-1.59-25.08-9.48-48.7-22.8-68.26-13.01-19.11-30.56-34.07-52.19-44.48-21.55-10.37-46.05-15.63-72.8-15.63-9.13,0-18.57.62-28.09,1.87-46.67,6.13-90.72,26.47-130.93,60.48-23.09,19.53-45.03,43.68-65.52,72.08-15.09-30.88-35.03-61.61-64.29-85.24-34.05-27.53-79.14-43.32-123.71-43.32-25.77,0-50.16,5.07-72.48,15.07-26.2,11.73-47.69,28.1-63.88,48.63-15.5,19.67-25.41,42.17-29.45,66.86-6.76,41.27,3.92,84.15,29.03,120.5-7.49,1.16-11.78,1.85-14.39,2.39-15.9,3.44-32.06,8.05-48.08,13.73-35.3,12.51-99.04,40.93-129.49,90.62-39.67,64.75-31.35,132.9,21.73,177.88,30.15,25.53,69.05,39.08,115.62,40.26,2.24.06,4.53.09,6.81.09,25.17,0,52.29-3.54,80.59-10.55,4.76-1.18,9.54-2.45,14.3-3.81-14.66,34.57-20.44,69.94-16.72,102.79,4.67,41.26,24.32,76.4,56.77,101.62,29.03,22.55,63.09,33.97,101.24,33.97,51.29,0,107.99-21.64,155.54-59.41,17.73-14.09,34.39-30.42,49.7-48.73,4.23,9.3,7.85,19.5,11.59,30.06,3.18,8.99,6.47,18.28,10.3,27.41,1.58,4.17,3.39,8.46,5.13,12.6,8.88,21.03,12.28,32.05,7.41,37.16-4.13,3.57-16.62,5.72-20.93,6.45-89.69,14.55-188.15,27.81-300.98,40.56l-5.1.57-5.08.57-.24.03-.24.03c-25.36,3.34-50.84,7.15-75.47,10.83-29.49,4.41-59.97,8.95-90.13,12.69-47.46,5.8-68.72,17.04-81.93,26.19-25.26,17.49-40.51,43.64-46.63,79.97-3.62,20.93-1.04,40.23,7.67,57.36,7.36,14.51,19.17,27.63,36.07,40.11,19.56,14.65,40.05,29.3,60.87,43.55l.28.19.29.19c49.21,31.73,100,61.32,149.12,89.93,78.88,45.96,160.44,93.47,235.25,149.97l.1.08.11.09c22.67,16.75,44.76,35.5,66.13,53.63,19.11,16.22,38.88,32.99,59.46,48.73l.19.14.18.13c20.5,15.11,38.89,23.93,57.85,27.79,7.37,1.55,15.06,2.33,22.85,2.33,21.44,0,43.74-5.88,64.49-17.02,19.96-10.71,37.17-25.51,49.75-42.81l.27-.37.25-.38c12.23-18.13,20.37-39.91,23.51-62.96,3.01-22.05,1.45-44.89-4.51-66.04l-.05-.2-.06-.22v-.03c-14.69-52.3-57.64-81.9-95.53-108.02l-1.36-.94c-30.63-21.69-67.18-46.86-106.18-69.17-47.38-27.9-100.22-51.36-161.49-71.71-48.22-16.01-100.21-29.81-168.56-44.7-25.32-5.66-55.4-12.18-86.57-17.69-2.17-.43-4.34-.84-6.51-1.24,1.52-.23,3.03-.46,4.53-.7l5.03-.78c62.29-7.76,124.68-21.13,185.01-34.06,58.29-12.48,118.55-25.4,177.69-32.95l.28-.04.27-.04c9.44-1.41,21.87-3.35,34.29-5.71l.28-.05.28-.06c1.45-.31,2.94-.62,4.46-.94,18.56-3.92,41.64-8.8,62.44-17.41,15.49-6.43,27.55-14,36.9-23.13l.13-.13.11-.13c14.39-14.47,21.35-34.94,20.67-60.84v-.39l-.03-.39c-1.32-23.17-2.25-46.75-3.11-69.74,56.89,42.65,106.74,52.82,141.35,52.82,16.43,0,32.81-2.25,48.71-6.67,55.43-15.46,92.17-56.22,98.28-109.03.19-1.71.36-3.39.47-5.06.5-6.48.5-13.12,0-19.69-2.03-27.04-12.14-54.22-30.89-83.09-6.06-9.31-12.62-18.21-19.44-26.72,10.39-1.75,20.83-3.94,31.18-6.56,31.32-7.92,76.34-23.5,112.91-52.71,17.86-14.28,31.93-30.46,41.82-48.1,11.22-20.02,17.09-41.93,17.43-65.1.31-21.56-4.9-42.01-15.5-60.76ZM1014.69,517.42c-15.68,3.97-31.07,6.75-45.28,8.43-4.7.55-29.5,1.1-30.18,3.78,32.79,35.17,71.66,80.31,75.46,130.78.39,5.22.41,10.51,0,15.85-.1,1.35-.23,2.7-.38,4.05-5.22,45.13-37.37,75.59-79.8,87.42-14.1,3.92-28.07,5.74-41.88,5.74-63.29,0-122.51-38.2-169.18-85.78,1.99,42.9,3.02,86.26,5.5,129.62.39,15.21-2.32,31.19-13.27,42.21-7.57,7.4-17.67,13.17-28.84,17.81-20.23,8.38-43.97,13.04-62.45,16.98-11.02,2.09-22.14,3.86-33.32,5.54-121.57,15.54-241.56,51.96-362.99,67.05-15.36,2.37-30.84,4.83-46.33,6.75-10.13,1.39-21.65,2.38-30.56,6.87-18.28,9.31-12.71,24.14,5.17,28.49,22.24,4.79,45.07,6.37,67.45,10.87,28.72,5.08,57.33,11.18,85.79,17.54,111.51,24.29,223.64,55.17,322.76,113.57,36.02,20.58,70.52,44.02,104.37,68.01,35.88,24.74,74.71,50.99,87.01,95.18l.08.25c10.04,35.63,5.26,76.92-15.6,107.86-20.74,28.48-57.92,49.35-93.65,49.35-5.97,0-11.91-.57-17.72-1.81-17.43-3.53-32.98-12.37-47.88-23.35-43.17-33-82.26-70.35-125.94-102.61-122.68-92.67-257.82-158.38-385.91-240.98-20.42-13.97-40.38-28.24-60.06-42.98-25.42-18.75-39.47-40.2-33.82-72.74,10.46-62.16,50.07-78.25,106.56-85.14,55.71-6.89,110.3-16.23,165.81-23.54,3.4-.38,6.79-.76,10.19-1.15,101.02-11.41,201.89-24.46,302.3-40.74,11.96-2.04,25.6-4.97,34.34-13.13,22.1-21.55,2.32-54.06-6.46-77.62-10.97-25.95-17.73-55.12-33.19-78.36-3.31-4.88-7.01-9.43-10.97-13.74-2.22,3.25-4.48,6.45-6.8,9.62-17.22,23.53-37.31,45.08-60.16,63.23-38.81,30.83-89.94,53.88-139.69,53.88-30.04,0-59.6-8.42-85.61-28.62-58.03-45.08-57.79-119.5-29.19-181.16,2.38-5.13,21.09-46.29,26.7-46.29.05,0,.1.01.15.01l-5.85-.87c-40.84,17.69-92.79,32.89-142.38,32.89-2.06,0-4.11-.03-6.17-.08-36.77-.94-71.89-10.61-99.8-34.24-46.42-39.33-47.27-94.88-16.48-145.13,22.6-36.88,70.66-63.74,116.28-79.92,15.63-5.54,30.98-9.82,44.91-12.83,7.38-1.58,52.63-7.62,54.35-9.77.64-.78,1.66-3.17.25-3.76-74.69-69.01-69.56-182.31,29.16-226.53,19.49-8.73,40.71-12.84,62.07-12.84,38.72,0,77.85,13.54,107.7,37.65,35.7,28.85,56.63,71.11,73.23,112.83l5.18,1.59c45.3-74.49,111.11-144.42,201.65-156.29,8.55-1.12,16.8-1.66,24.77-1.66,95.16,0,148.13,77.3,110.36,173.05-4.99,12.69-13.37,26.8-20.28,38.7-6.6,11.34-22.21,30.66-26.19,41-.83,2.14-1.8,2.22.28,4.7,52.44-15.77,108.22-28.88,163.69-28.88,6.9,0,13.83.2,20.72.62,5.3.32,10.6.78,15.88,1.38,62.4,7.11,138.08,48.35,137.04,119.79-1.15,79.34-80.35,123.22-152.93,141.58Z"/>
        <path d="M685.08,460.11c-69.71,15.64-185.37,10.36-246.46-27.96-32.04-20.09-48.11-49.1-10.88-75.22,55.84-39.13,172.3-37.54,236.73-23.81,32.34,6.89,89.78,21.55,103.74,55.05,18.52,44.47-51.75,64.89-83.13,71.93Z"/>
      </g>
      <g>
        <g>
          <g>
            <g>
              <path d="M2345,831.02c-25.12,0-45.73,6.05-62.71,18.47l-.75-18.47h-176.16v77.32c-7.62-10.97-16.4-21.08-26.3-30.26-39.78-36.87-94.53-56.36-158.35-56.36s-118.57,19.49-158.34,56.36c-9.9,9.18-18.68,19.29-26.3,30.25v-191.44h-186.47v183.52c-38.49-49.59-101.8-78.69-179.07-78.69-63.88,0-118.63,19.4-158.32,56.11-17.13,15.84-30.92,34.48-41.1,55.53-8.16-17.83-18.75-33.82-31.53-47.76-37.31-40.73-93.31-63.88-162.3-63.88-63.88,0-118.63,19.4-158.32,56.11-19.8,18.31-35.14,40.36-45.59,65.54-10.53,25.35-15.86,53.35-15.86,83.23s5.33,58.12,15.84,83.55c10.45,25.26,25.78,47.38,45.58,65.74,39.67,36.77,94.42,56.21,158.35,56.21,52.25,0,99.43-13.36,136.45-38.62,9.34-6.37,17.97-13.45,25.85-21.18,13.85-13.57,25.4-29.13,34.41-46.35,9.84,18.77,22.64,35.51,38.2,49.94,39.66,36.77,94.42,56.21,158.34,56.21,57.84,0,108.79-16.17,147.34-46.74,11.99-9.51,22.59-20.24,31.73-32.06v69.5h186.47v-77.19c7.61,10.98,16.4,21.1,26.3,30.28,39.66,36.77,94.42,56.21,158.34,56.21s118.68-19.44,158.35-56.21c9.9-9.18,18.68-19.31,26.3-30.29v77.2h186.46v-168.91c0-23.51,5.26-27.72,6.99-29.11,6.05-4.85,20.54-7.3,43.06-7.3h62.84v-186.46h-59.73ZM1165.87,1055.13h-243.16c6.21,33.5,25.44,52.73,53.97,52.73,20.47,0,35.98-9.93,45.28-27.91h143.29c-1.3,4.83-2.8,9.55-4.47,14.16-5.29,14.56-12.41,27.96-21.18,40.05-33.29,45.92-90.44,72.94-162.3,72.94-117.24,0-194.77-71.95-194.77-180.5s77.53-179.88,194.77-179.88c75.8,0,131.79,29.96,162.3,80.46,7.77,12.86,13.88,27.05,18.25,42.42,5.29,18.61,8.02,38.94,8.02,60.72v24.81ZM1424.52,998.07c-6.83-29.16-25.44-45.91-53.97-45.91-36.6,0-57.06,27.3-57.06,74.44s20.46,75.05,57.06,75.05c28.53,0,47.14-16.74,53.97-46.52h138.94c-2.39,17.84-7.07,34.45-13.84,49.64-28.28,63.55-92.97,102.33-179.07,102.33-90.79,0-157.78-43.16-183.37-113.04-7.46-20.36-11.4-42.98-11.4-67.46,0-20.31,2.75-39.35,7.99-56.88,22.61-75.59,91.62-123,186.78-123,86.1,0,150.79,38.78,179.07,102,6.77,15.12,11.45,31.63,13.84,49.35h-138.94ZM1549.62,1023.07v7.06h-145.02l-4.45,19.41c-3.07,13.4-8.99,27.11-29.6,27.11-13.42,0-19.17-5.55-22.33-9.71-6.36-8.41-9.73-22.36-9.73-40.34,0-49.44,24.13-49.44,32.06-49.44,10.89,0,24.1,3.02,29.63,26.61l4.52,19.3h144.92ZM1711.09,1197.8h-136.47v-455.91h136.47v455.91ZM2105.38,1090.45c-24.59,72.01-92.3,116.65-184.65,116.65s-160.04-44.63-184.64-116.62c-6.63-19.42-10.13-40.82-10.13-63.88s3.5-44.02,10.13-63.32c24.6-71.55,92.31-116.56,184.64-116.56s160.06,45.03,184.65,116.59c6.63,19.29,10.12,40.51,10.12,63.29s-3.49,44.44-10.12,63.85ZM2379.73,992.48h-37.84c-56.44,0-75.05,13.65-75.05,61.41v143.91h-136.46v-341.78h127.16l3.1,75.68c14.88-53.35,40.32-75.68,84.36-75.68h34.73v136.46Z"/>
              <path d="M1920.73,952.17c-36.59,0-57.06,27.29-57.06,74.43s20.47,75.06,57.06,75.06,57.07-26.68,57.07-75.06-20.47-74.43-57.07-74.43ZM1943.11,1067.11c-3.13,4.1-8.84,9.55-22.38,9.55s-19.25-5.45-22.37-9.54c-6.34-8.33-9.69-22.34-9.69-40.52,0-49.43,24.13-49.43,32.06-49.43s32.07,0,32.07,49.43c0,18.18-3.35,32.19-9.69,40.51ZM1920.73,952.17c-36.59,0-57.06,27.29-57.06,74.43s20.47,75.06,57.06,75.06,57.07-26.68,57.07-75.06-20.47-74.43-57.07-74.43ZM1943.11,1067.11c-3.13,4.1-8.84,9.55-22.38,9.55s-19.25-5.45-22.37-9.54c-6.34-8.33-9.69-22.34-9.69-40.52,0-49.43,24.13-49.43,32.06-49.43s32.07,0,32.07,49.43c0,18.18-3.35,32.19-9.69,40.51ZM1920.73,952.17c-36.59,0-57.06,27.29-57.06,74.43s20.47,75.06,57.06,75.06,57.07-26.68,57.07-75.06-20.47-74.43-57.07-74.43ZM1943.11,1067.11c-3.13,4.1-8.84,9.55-22.38,9.55s-19.25-5.45-22.37-9.54c-6.34-8.33-9.69-22.34-9.69-40.52,0-49.43,24.13-49.43,32.06-49.43s32.07,0,32.07,49.43c0,18.18-3.35,32.19-9.69,40.51ZM1920.73,952.17c-36.59,0-57.06,27.29-57.06,74.43s20.47,75.06,57.06,75.06,57.07-26.68,57.07-75.06-20.47-74.43-57.07-74.43ZM1943.11,1067.11c-3.13,4.1-8.84,9.55-22.38,9.55s-19.25-5.45-22.37-9.54c-6.34-8.33-9.69-22.34-9.69-40.52,0-49.43,24.13-49.43,32.06-49.43s32.07,0,32.07,49.43c0,18.18-3.35,32.19-9.69,40.51ZM1920.73,952.17c-36.59,0-57.06,27.29-57.06,74.43s20.47,75.06,57.06,75.06,57.07-26.68,57.07-75.06-20.47-74.43-57.07-74.43ZM1943.11,1067.11c-3.13,4.1-8.84,9.55-22.38,9.55s-19.25-5.45-22.37-9.54c-6.34-8.33-9.69-22.34-9.69-40.52,0-49.43,24.13-49.43,32.06-49.43s32.07,0,32.07,49.43c0,18.18-3.35,32.19-9.69,40.51ZM1920.73,952.17c-36.59,0-57.06,27.29-57.06,74.43s20.47,75.06,57.06,75.06,57.07-26.68,57.07-75.06-20.47-74.43-57.07-74.43ZM1943.11,1067.11c-3.13,4.1-8.84,9.55-22.38,9.55s-19.25-5.45-22.37-9.54c-6.34-8.33-9.69-22.34-9.69-40.52,0-49.43,24.13-49.43,32.06-49.43s32.07,0,32.07,49.43c0,18.18-3.35,32.19-9.69,40.51ZM1920.73,952.17c-36.59,0-57.06,27.29-57.06,74.43s20.47,75.06,57.06,75.06,57.07-26.68,57.07-75.06-20.47-74.43-57.07-74.43ZM1943.11,1067.11c-3.13,4.1-8.84,9.55-22.38,9.55s-19.25-5.45-22.37-9.54c-6.34-8.33-9.69-22.34-9.69-40.52,0-49.43,24.13-49.43,32.06-49.43s32.07,0,32.07,49.43c0,18.18-3.35,32.19-9.69,40.51ZM1920.73,952.17c-36.59,0-57.06,27.29-57.06,74.43s20.47,75.06,57.06,75.06,57.07-26.68,57.07-75.06-20.47-74.43-57.07-74.43ZM1943.11,1067.11c-3.13,4.1-8.84,9.55-22.38,9.55s-19.25-5.45-22.37-9.54c-6.34-8.33-9.69-22.34-9.69-40.52,0-49.43,24.13-49.43,32.06-49.43s32.07,0,32.07,49.43c0,18.18-3.35,32.19-9.69,40.51ZM1920.73,952.17c-36.59,0-57.06,27.29-57.06,74.43s20.47,75.06,57.06,75.06,57.07-26.68,57.07-75.06-20.47-74.43-57.07-74.43ZM1943.11,1067.11c-3.13,4.1-8.84,9.55-22.38,9.55s-19.25-5.45-22.37-9.54c-6.34-8.33-9.69-22.34-9.69-40.52,0-49.43,24.13-49.43,32.06-49.43s32.07,0,32.07,49.43c0,18.18-3.35,32.19-9.69,40.51ZM1920.73,952.17c-36.59,0-57.06,27.29-57.06,74.43s20.47,75.06,57.06,75.06,57.07-26.68,57.07-75.06-20.47-74.43-57.07-74.43ZM1943.11,1067.11c-3.13,4.1-8.84,9.55-22.38,9.55s-19.25-5.45-22.37-9.54c-6.34-8.33-9.69-22.34-9.69-40.52,0-49.43,24.13-49.43,32.06-49.43s32.07,0,32.07,49.43c0,18.18-3.35,32.19-9.69,40.51ZM1920.73,952.17c-36.59,0-57.06,27.29-57.06,74.43s20.47,75.06,57.06,75.06,57.07-26.68,57.07-75.06-20.47-74.43-57.07-74.43ZM1943.11,1067.11c-3.13,4.1-8.84,9.55-22.38,9.55s-19.25-5.45-22.37-9.54c-6.34-8.33-9.69-22.34-9.69-40.52,0-49.43,24.13-49.43,32.06-49.43s32.07,0,32.07,49.43c0,18.18-3.35,32.19-9.69,40.51ZM1920.73,952.17c-36.59,0-57.06,27.29-57.06,74.43s20.47,75.06,57.06,75.06,57.07-26.68,57.07-75.06-20.47-74.43-57.07-74.43ZM1943.11,1067.11c-3.13,4.1-8.84,9.55-22.38,9.55s-19.25-5.45-22.37-9.54c-6.34-8.33-9.69-22.34-9.69-40.52,0-49.43,24.13-49.43,32.06-49.43s32.07,0,32.07,49.43c0,18.18-3.35,32.19-9.69,40.51ZM1920.73,952.17c-36.59,0-57.06,27.29-57.06,74.43s20.47,75.06,57.06,75.06,57.07-26.68,57.07-75.06-20.47-74.43-57.07-74.43ZM1943.11,1067.11c-3.13,4.1-8.84,9.55-22.38,9.55s-19.25-5.45-22.37-9.54c-6.34-8.33-9.69-22.34-9.69-40.52,0-49.43,24.13-49.43,32.06-49.43s32.07,0,32.07,49.43c0,18.18-3.35,32.19-9.69,40.51ZM1920.73,952.17c-36.59,0-57.06,27.29-57.06,74.43s20.47,75.06,57.06,75.06,57.07-26.68,57.07-75.06-20.47-74.43-57.07-74.43ZM1943.11,1067.11c-3.13,4.1-8.84,9.55-22.38,9.55s-19.25-5.45-22.37-9.54c-6.34-8.33-9.69-22.34-9.69-40.52,0-49.43,24.13-49.43,32.06-49.43s32.07,0,32.07,49.43c0,18.18-3.35,32.19-9.69,40.51ZM1920.73,952.17c-36.59,0-57.06,27.29-57.06,74.43s20.47,75.06,57.06,75.06,57.07-26.68,57.07-75.06-20.47-74.43-57.07-74.43ZM1943.11,1067.11c-3.13,4.1-8.84,9.55-22.38,9.55s-19.25-5.45-22.37-9.54c-6.34-8.33-9.69-22.34-9.69-40.52,0-49.43,24.13-49.43,32.06-49.43s32.07,0,32.07,49.43c0,18.18-3.35,32.19-9.69,40.51ZM1920.73,952.17c-36.59,0-57.06,27.29-57.06,74.43s20.47,75.06,57.06,75.06,57.07-26.68,57.07-75.06-20.47-74.43-57.07-74.43ZM1943.11,1067.11c-3.13,4.1-8.84,9.55-22.38,9.55s-19.25-5.45-22.37-9.54c-6.34-8.33-9.69-22.34-9.69-40.52,0-49.43,24.13-49.43,32.06-49.43s32.07,0,32.07,49.43c0,18.18-3.35,32.19-9.69,40.51ZM1920.73,952.17c-36.59,0-57.06,27.29-57.06,74.43s20.47,75.06,57.06,75.06,57.07-26.68,57.07-75.06-20.47-74.43-57.07-74.43ZM1943.11,1067.11c-3.13,4.1-8.84,9.55-22.38,9.55s-19.25-5.45-22.37-9.54c-6.34-8.33-9.69-22.34-9.69-40.52,0-49.43,24.13-49.43,32.06-49.43s32.07,0,32.07,49.43c0,18.18-3.35,32.19-9.69,40.51ZM1920.73,952.17c-36.59,0-57.06,27.29-57.06,74.43s20.47,75.06,57.06,75.06,57.07-26.68,57.07-75.06-20.47-74.43-57.07-74.43ZM1943.11,1067.11c-3.13,4.1-8.84,9.55-22.38,9.55s-19.25-5.45-22.37-9.54c-6.34-8.33-9.69-22.34-9.69-40.52,0-49.43,24.13-49.43,32.06-49.43s32.07,0,32.07,49.43c0,18.18-3.35,32.19-9.69,40.51Z"/>
            </g>
            <path d="M1031.26,998.69h-108.55c6.21-33.5,25.44-52.73,54.59-52.73s47.76,19.23,53.96,52.73Z"/>
          </g>
          <path d="M1549.62,1023.08v7.06h-145.02l-4.45,19.41c-3.07,13.4-8.99,27.11-29.6,27.11-13.42,0-19.17-5.55-22.33-9.71-6.36-8.41-9.73-22.36-9.73-40.34,0-49.44,24.13-49.44,32.06-49.44,10.89,0,24.1,3.02,29.63,26.61l4.52,19.3h144.92Z"/>
          <path d="M1952.8,1026.61c0,18.18-3.35,32.19-9.69,40.51-3.13,4.1-8.84,9.55-22.38,9.55s-19.25-5.45-22.37-9.54c-6.34-8.33-9.69-22.34-9.69-40.52,0-49.43,24.13-49.43,32.06-49.43s32.07,0,32.07,49.43Z"/>
        </g>
        <path d="M1165.87,1030.32c0-21.78-2.73-42.11-8.02-60.72-4.37-15.37-10.48-29.56-18.25-42.42-30.51-50.5-86.5-80.46-162.3-80.46-117.24,0-194.77,71.95-194.77,179.88s77.53,180.5,194.77,180.5c71.86,0,129.01-27.02,162.3-72.94,8.77-12.09,15.89-25.49,21.18-40.05,1.67-4.61,3.17-9.33,4.47-14.16h-143.29c-9.3,17.98-24.81,27.91-45.28,27.91-28.53,0-47.76-19.23-53.97-52.73h243.16v-24.81ZM922.71,998.69c6.21-33.5,25.44-52.73,54.59-52.73s47.76,19.23,53.96,52.73h-108.55Z" fill="#3671a1"/>
        <rect x="2323.72" y="1104.94" width="121.58" height="117.86" fill="#3671a1"/>
        <path d="M2379.73,856.02v136.46h-37.84c-56.44,0-75.05,13.65-75.05,61.41v143.91h-136.46v-341.78h127.16l3.1,75.68c14.88-53.35,40.32-75.68,84.36-75.68h34.73Z" fill="#3671a1"/>
        <path d="M2105.38,963.31c-24.59-71.56-92.3-116.59-184.65-116.59s-160.04,45.01-184.64,116.56c-6.63,19.3-10.13,40.52-10.13,63.32s3.5,44.46,10.13,63.88c24.6,71.99,92.31,116.62,184.64,116.62s160.06-44.64,184.65-116.65c6.63-19.41,10.12-40.8,10.12-63.85s-3.49-44-10.12-63.29ZM1920.73,1101.66c-36.59,0-57.06-26.68-57.06-75.06s20.47-74.43,57.06-74.43,57.07,27.29,57.07,74.43-20.47,75.06-57.07,75.06Z" fill="#3671a1"/>
        <rect x="1574.62" y="741.89" width="136.47" height="455.91" fill="#3671a1"/>
        <path d="M1424.52,1055.13h138.94c-2.39,17.84-7.07,34.45-13.84,49.64-28.28,63.55-92.97,102.33-179.07,102.33-90.79,0-157.78-43.16-183.37-113.04-7.46-20.36-11.4-42.98-11.4-67.46,0-20.31,2.75-39.35,7.99-56.88,22.61-75.59,91.62-123,186.78-123,86.1,0,150.79,38.78,179.07,102,6.77,15.12,11.45,31.63,13.84,49.35h-138.94c-6.83-29.16-25.44-45.91-53.97-45.91-36.6,0-57.06,27.3-57.06,74.44s20.46,75.05,57.06,75.05c28.53,0,47.14-16.74,53.97-46.52Z" fill="#3671a1"/>
        <path d="M2425.29,1124.95v77.85h-81.58v-77.85h81.58M2445.29,1104.95h-121.58v117.85h121.58v-117.85h0Z"/>
      </g>
    </g>
  </g>
</svg>